<?xml version="1.0" encoding="UTF-8"?>
<svg width="64" height="64" viewBox="0 0 64 64" xmlns="http://www.w3.org/2000/svg" role="img" aria-label="Breath rate">
  <g fill="none" stroke="#FFFFFF" stroke-width="4.5" stroke-linecap="round" stroke-linejoin="round">
    <path d="M32 11v23"/>
    <path d="M32 25c-6-8-15-10-20-4-4 5-5 19-2 27 2 5 8 6 13 3 6-4 9-13 9-26Z"/>
    <path d="M32 25c6-8 15-10 20-4 4 5 5 19 2 27-2 5-8 6-13 3-6-4-9-13-9-26Z"/>
    <path d="M20 28c-4 4-5 11-3 17"/>
    <path d="M44 28c4 4 5 11 3 17"/>
  </g>
</svg>
